<svg width="164" height="30" viewBox="0 0 164 30" fill="none" xmlns="http://www.w3.org/2000/svg">
<path d="M15.2889 9.25714C17.6 9.25714 19.0222 6 19.0222 3.94286C19.0222 2.22857 18.1333 0.171428 16.3556 0.171428C14.0444 0.171428 12.6222 3.42857 12.6222 5.48571C12.6222 7.2 13.5111 9.25714 15.2889 9.25714ZM8.53333 9.25714C10.3111 9.25714 11.2 7.2 11.2 5.48571C11.2 3.25714 9.77778 0 7.46667 0C5.68889 0 4.8 2.05714 4.8 3.77143C4.62222 6 6.04445 9.25714 8.53333 9.25714ZM21.6889 7.54286C19.3778 7.54286 17.7778 10.6286 17.7778 12.8571C17.7778 14.4 18.4889 15.9429 20.0889 15.9429C22.4 15.9429 24 12.8571 24 10.6286C24 9.08572 23.1111 7.54286 21.6889 7.54286ZM6.22222 12.8571C6.22222 10.6286 4.44444 7.54286 2.31111 7.54286C0.711111 7.54286 0 9.08572 0 10.6286C0 12.8571 1.77778 15.9429 3.91111 15.9429C5.51111 15.9429 6.22222 14.4 6.22222 12.8571ZM11.9111 12.5143C8.35556 12.5143 3.55556 18 3.55556 21.7714C3.55556 23.4857 4.8 24 6.22222 24C8.35556 24 9.95556 22.6286 11.9111 22.6286C13.6889 22.6286 15.2889 24 17.2444 24C18.6667 24 20.2667 23.6571 20.2667 21.7714C20.2667 18 15.4667 12.5143 11.9111 12.5143Z" fill="#F1F1F1"/>
<path d="M48.3901 1.45695C48.7645 0.706401 49.3845 0.331126 50.2501 0.331126C50.8351 0.331126 51.3615 0.507726 51.8294 0.860926C52.2973 1.21413 52.5313 1.65563 52.5313 2.18543C52.5313 2.42826 52.4611 2.70419 52.3207 3.01324L42.5995 22.7483C42.3889 23.1678 42.0613 23.4989 41.6168 23.7417C41.1957 23.9625 40.7394 24.0728 40.2481 24.0728C39.7568 24.0728 39.2888 23.9625 38.8443 23.7417C38.4232 23.4989 38.1073 23.1678 37.8968 22.7483L28.2106 3.01324C28.0702 2.70419 28 2.43929 28 2.21854C28 1.66667 28.234 1.21413 28.7019 0.860926C29.1932 0.507726 29.743 0.331126 30.3514 0.331126C30.7491 0.331126 31.1117 0.430463 31.4393 0.629139C31.7902 0.80574 32.0593 1.08168 32.2465 1.45695L40.3183 18.3775L48.3901 1.45695Z" fill="#F1F1F1"/>
<path d="M66.6131 19.4371C67.0109 19.4371 67.3267 19.5806 67.5607 19.8675C67.8181 20.1545 67.9467 20.5408 67.9467 21.0265C67.9467 21.7108 67.5139 22.2848 66.6482 22.7483C65.8527 23.1678 64.952 23.5099 63.9459 23.7748C62.9399 24.0177 61.9806 24.1391 61.0681 24.1391C58.3073 24.1391 56.1198 23.3885 54.5054 21.8874C52.891 20.3863 52.0839 18.3333 52.0839 15.7285C52.0839 14.0728 52.4348 12.6049 53.1367 11.3245C53.8386 10.0442 54.8212 9.05077 56.0847 8.34437C57.3715 7.63797 58.8221 7.28477 60.4364 7.28477C61.9806 7.28477 63.3259 7.60486 64.4723 8.24503C65.6188 8.88521 66.5078 9.79029 67.1395 10.9603C67.7713 12.1302 68.0871 13.5099 68.0871 15.0993C68.0871 16.0486 67.6426 16.5232 66.7535 16.5232H56.4005C56.5409 18.0464 56.9971 19.1722 57.7692 19.9007C58.5413 20.6071 59.6643 20.9603 61.1383 20.9603C61.887 20.9603 62.5421 20.872 63.1036 20.6954C63.6885 20.5188 64.3437 20.2759 65.069 19.9669C65.7708 19.6137 66.2856 19.4371 66.6131 19.4371ZM60.5417 10.1987C59.3485 10.1987 58.3892 10.5519 57.6639 11.2583C56.962 11.9647 56.5409 12.9801 56.4005 14.3046H64.332C64.2852 12.9581 63.9342 11.9426 63.2791 11.2583C62.624 10.5519 61.7115 10.1987 60.5417 10.1987Z" fill="#F1F1F1"/>
<path d="M80.3497 20.9934C81.5196 21.0596 82.1045 21.5563 82.1045 22.4834C82.1045 23.0132 81.8705 23.4216 81.4026 23.7086C80.9581 23.9735 80.3147 24.0839 79.4724 24.0397L78.5248 23.9735C74.5942 23.7086 72.6289 21.7219 72.6289 18.0132V10.7947H70.8741C70.2424 10.7947 69.7511 10.6623 69.4001 10.3974C69.0726 10.1325 68.9088 9.74614 68.9088 9.23841C68.9088 8.73068 69.0726 8.34437 69.4001 8.07947C69.7511 7.81457 70.2424 7.68212 70.8741 7.68212H72.6289V4.63576C72.6289 4.03973 72.8278 3.56512 73.2255 3.21192C73.6232 2.85872 74.1614 2.68212 74.8399 2.68212C75.495 2.68212 76.0214 2.85872 76.4191 3.21192C76.8169 3.56512 77.0157 4.03973 77.0157 4.63576V7.68212H79.9988C80.6305 7.68212 81.1101 7.81457 81.4377 8.07947C81.7886 8.34437 81.9641 8.73068 81.9641 9.23841C81.9641 9.74614 81.7886 10.1325 81.4377 10.3974C81.1101 10.6623 80.6305 10.7947 79.9988 10.7947H77.0157V18.3113C77.0157 19.9448 77.8112 20.8168 79.4022 20.9272L80.3497 20.9934Z" fill="#F1F1F1"/>
<path d="M97.9372 7.35099C98.6157 7.35099 99.1538 7.52759 99.5516 7.8808C99.9493 8.234 100.148 8.70861 100.148 9.30464V22.1523C100.148 22.7263 99.9376 23.1898 99.5165 23.543C99.1187 23.8962 98.5923 24.0728 97.9372 24.0728C97.3055 24.0728 96.8025 23.9073 96.4281 23.5762C96.0538 23.245 95.8666 22.7925 95.8666 22.2185V21.3907C95.3285 22.2737 94.6032 22.9581 93.6907 23.4437C92.7783 23.9073 91.7488 24.1391 90.6024 24.1391C86.391 24.1391 84.2853 21.9095 84.2853 17.4503V9.30464C84.2853 8.70861 84.4842 8.234 84.8819 7.8808C85.2797 7.52759 85.8061 7.35099 86.4612 7.35099C87.1397 7.35099 87.6778 7.52759 88.0756 7.8808C88.4733 8.234 88.6722 8.70861 88.6722 9.30464V17.4834C88.6722 18.6313 88.9178 19.4812 89.4092 20.0331C89.9005 20.585 90.6726 20.8609 91.7254 20.8609C92.942 20.8609 93.913 20.4857 94.6383 19.7351C95.387 18.9625 95.7613 17.947 95.7613 16.6887V9.30464C95.7613 8.70861 95.9602 8.234 96.3579 7.8808C96.7557 7.52759 97.2821 7.35099 97.9372 7.35099Z" fill="#F1F1F1"/>
<path d="M114.681 7.28477C116.74 7.28477 118.272 7.83664 119.278 8.9404C120.285 10.0442 120.788 11.7108 120.788 13.9404V22.0861C120.788 22.7042 120.589 23.1898 120.191 23.543C119.817 23.8962 119.29 24.0728 118.612 24.0728C117.933 24.0728 117.395 23.8962 116.997 23.543C116.6 23.1898 116.401 22.7042 116.401 22.0861V14.1722C116.401 12.9139 116.143 11.9978 115.629 11.4238C115.137 10.8499 114.353 10.5629 113.277 10.5629C112.014 10.5629 110.996 10.9382 110.224 11.6887C109.475 12.4393 109.101 13.4437 109.101 14.702V22.0861C109.101 22.7042 108.902 23.1898 108.504 23.543C108.107 23.8962 107.568 24.0728 106.89 24.0728C106.211 24.0728 105.673 23.8962 105.276 23.543C104.901 23.1898 104.714 22.7042 104.714 22.0861V9.27152C104.714 8.69757 104.913 8.234 105.311 7.8808C105.708 7.52759 106.247 7.35099 106.925 7.35099C107.533 7.35099 108.025 7.52759 108.399 7.8808C108.797 8.21192 108.996 8.65342 108.996 9.2053V10.0993C109.581 9.19426 110.364 8.4989 111.347 8.01324C112.33 7.52759 113.441 7.28477 114.681 7.28477Z" fill="#F1F1F1"/>
<path d="M127.419 24.0728C126.787 24.0728 126.261 23.9073 125.84 23.5762C125.442 23.223 125.243 22.7263 125.243 22.0861V9.30464C125.243 8.66446 125.442 8.17881 125.84 7.84768C126.261 7.51656 126.787 7.35099 127.419 7.35099C128.051 7.35099 128.577 7.51656 128.998 7.84768C129.419 8.17881 129.63 8.66446 129.63 9.30464V22.0861C129.63 22.7263 129.419 23.223 128.998 23.5762C128.577 23.9073 128.051 24.0728 127.419 24.0728ZM127.419 4.40397C126.624 4.40397 125.992 4.2053 125.524 3.80795C125.056 3.38852 124.822 2.84768 124.822 2.18543C124.822 1.52318 125.056 0.993377 125.524 0.596027C125.992 0.198676 126.624 0 127.419 0C128.191 0 128.811 0.198676 129.279 0.596027C129.77 0.993377 130.016 1.52318 130.016 2.18543C130.016 2.84768 129.782 3.38852 129.314 3.80795C128.846 4.2053 128.215 4.40397 127.419 4.40397Z" fill="#F1F1F1"/>
<path d="M143.822 20.9934C144.992 21.0596 145.577 21.5563 145.577 22.4834C145.577 23.0132 145.343 23.4216 144.875 23.7086C144.43 23.9735 143.787 24.0839 142.945 24.0397L141.997 23.9735C138.067 23.7086 136.101 21.7219 136.101 18.0132V10.7947H134.346C133.715 10.7947 133.223 10.6623 132.873 10.3974C132.545 10.1325 132.381 9.74614 132.381 9.23841C132.381 8.73068 132.545 8.34437 132.873 8.07947C133.223 7.81457 133.715 7.68212 134.346 7.68212H136.101V4.63576C136.101 4.03973 136.3 3.56512 136.698 3.21192C137.096 2.85872 137.634 2.68212 138.312 2.68212C138.967 2.68212 139.494 2.85872 139.891 3.21192C140.289 3.56512 140.488 4.03973 140.488 4.63576V7.68212H143.471C144.103 7.68212 144.582 7.81457 144.91 8.07947C145.261 8.34437 145.436 8.73068 145.436 9.23841C145.436 9.74614 145.261 10.1325 144.91 10.3974C144.582 10.6623 144.103 10.7947 143.471 10.7947H140.488V18.3113C140.488 19.9448 141.284 20.8168 142.875 20.9272L143.822 20.9934Z" fill="#F1F1F1"/>
<path d="M160.104 8.54305C160.292 8.14569 160.537 7.85872 160.841 7.68212C161.169 7.48344 161.52 7.38411 161.894 7.38411C162.432 7.38411 162.912 7.56071 163.333 7.91391C163.778 8.24503 164 8.66446 164 9.17218C164 9.41501 163.93 9.66887 163.789 9.93377L154.209 28.8742C153.811 29.6247 153.191 30 152.349 30C151.81 30 151.331 29.8344 150.91 29.5033C150.512 29.1943 150.313 28.7969 150.313 28.3113C150.313 28.0684 150.383 27.7925 150.524 27.4834L152.91 22.7483L146.382 9.93377C146.265 9.71302 146.207 9.45916 146.207 9.17218C146.207 8.66446 146.429 8.234 146.874 7.8808C147.342 7.52759 147.868 7.35099 148.453 7.35099C148.851 7.35099 149.213 7.45033 149.541 7.64901C149.868 7.82561 150.126 8.11258 150.313 8.50993L155.226 18.7417L160.104 8.54305Z" fill="#F1F1F1"/>
</svg>
