<svg width="258" height="258" viewBox="0 0 258 258" fill="none" xmlns="http://www.w3.org/2000/svg">
<path d="M154.08 69.12C170.72 69.12 180.96 44.8 180.96 29.44C180.96 16.64 174.56 1.28 161.76 1.28C145.12 1.28 134.88 25.6 134.88 40.96C134.88 53.76 141.28 69.12 154.08 69.12ZM105.44 69.12C118.24 69.12 124.64 53.76 124.64 40.96C124.64 24.32 114.4 0 97.76 0C84.96 0 78.56 15.36 78.56 28.16C77.28 44.8 87.52 69.12 105.44 69.12ZM200.16 56.32C183.52 56.32 172 79.36 172 96C172 107.52 177.12 119.04 188.64 119.04C205.28 119.04 216.8 96 216.8 79.36C216.8 67.84 210.4 56.32 200.16 56.32ZM88.8 96C88.8 79.36 76 56.32 60.64 56.32C49.12 56.32 44 67.84 44 79.36C44 96 56.8 119.04 72.16 119.04C83.68 119.04 88.8 107.52 88.8 96ZM129.76 93.44C104.16 93.44 69.6 134.4 69.6 162.56C69.6 175.36 78.56 179.2 88.8 179.2C104.16 179.2 115.68 168.96 129.76 168.96C142.56 168.96 154.08 179.2 168.16 179.2C178.4 179.2 189.92 176.64 189.92 162.56C189.92 134.4 155.36 93.44 129.76 93.44Z" fill="#F1F1F1"/>
<path d="M40.6962 201.672C41.3789 200.221 42.5095 199.496 44.0882 199.496C45.1549 199.496 46.1149 199.837 46.9682 200.52C47.8215 201.203 48.2482 202.056 48.2482 203.08C48.2482 203.549 48.1202 204.083 47.8642 204.68L30.1362 242.824C29.7522 243.635 29.1549 244.275 28.3442 244.744C27.5762 245.171 26.7442 245.384 25.8482 245.384C24.9522 245.384 24.0989 245.171 23.2882 244.744C22.5202 244.275 21.9442 243.635 21.5602 242.824L3.89621 204.68C3.64021 204.083 3.51221 203.571 3.51221 203.144C3.51221 202.077 3.93887 201.203 4.79221 200.52C5.68821 199.837 6.69087 199.496 7.80021 199.496C8.52554 199.496 9.18687 199.688 9.78421 200.072C10.4242 200.413 10.9149 200.947 11.2562 201.672L25.9762 234.376L40.6962 201.672Z" fill="#F1F1F1"/>
<path d="M73.9282 236.424C74.6535 236.424 75.2295 236.701 75.6562 237.256C76.1255 237.811 76.3602 238.557 76.3602 239.496C76.3602 240.819 75.5709 241.928 73.9922 242.824C72.5415 243.635 70.8989 244.296 69.0642 244.808C67.2295 245.277 65.4802 245.512 63.8162 245.512C58.7815 245.512 54.7922 244.061 51.8482 241.16C48.9042 238.259 47.4322 234.291 47.4322 229.256C47.4322 226.056 48.0722 223.219 49.3522 220.744C50.6322 218.269 52.4242 216.349 54.7282 214.984C57.0749 213.619 59.7202 212.936 62.6642 212.936C65.4802 212.936 67.9335 213.555 70.0242 214.792C72.1149 216.029 73.7362 217.779 74.8882 220.04C76.0402 222.301 76.6162 224.968 76.6162 228.04C76.6162 229.875 75.8055 230.792 74.1842 230.792H55.3042C55.5602 233.736 56.3922 235.912 57.8002 237.32C59.2082 238.685 61.2562 239.368 63.9442 239.368C65.3095 239.368 66.5042 239.197 67.5282 238.856C68.5949 238.515 69.7895 238.045 71.1122 237.448C72.3922 236.765 73.3309 236.424 73.9282 236.424ZM62.8562 218.568C60.6802 218.568 58.9309 219.251 57.6082 220.616C56.3282 221.981 55.5602 223.944 55.3042 226.504H69.7682C69.6829 223.901 69.0429 221.939 67.8482 220.616C66.6535 219.251 64.9895 218.568 62.8562 218.568Z" fill="#F1F1F1"/>
<path d="M98.9787 239.432C101.112 239.56 102.179 240.52 102.179 242.312C102.179 243.336 101.752 244.125 100.899 244.68C100.088 245.192 98.9147 245.405 97.3787 245.32L95.6507 245.192C88.4827 244.68 84.8987 240.84 84.8987 233.672V219.72H81.6987C80.5467 219.72 79.6507 219.464 79.0107 218.952C78.4134 218.44 78.1147 217.693 78.1147 216.712C78.1147 215.731 78.4134 214.984 79.0107 214.472C79.6507 213.96 80.5467 213.704 81.6987 213.704H84.8987V207.816C84.8987 206.664 85.2614 205.747 85.9867 205.064C86.712 204.381 87.6934 204.04 88.9307 204.04C90.1254 204.04 91.0854 204.381 91.8107 205.064C92.536 205.747 92.8987 206.664 92.8987 207.816V213.704H98.3387C99.4907 213.704 100.365 213.96 100.963 214.472C101.603 214.984 101.923 215.731 101.923 216.712C101.923 217.693 101.603 218.44 100.963 218.952C100.365 219.464 99.4907 219.72 98.3387 219.72H92.8987V234.248C92.8987 237.405 94.3494 239.091 97.2507 239.304L98.9787 239.432Z" fill="#F1F1F1"/>
<path d="M131.052 213.064C132.289 213.064 133.27 213.405 133.996 214.088C134.721 214.771 135.084 215.688 135.084 216.84V241.672C135.084 242.781 134.7 243.677 133.932 244.36C133.206 245.043 132.246 245.384 131.052 245.384C129.9 245.384 128.982 245.064 128.3 244.424C127.617 243.784 127.276 242.909 127.276 241.8V240.2C126.294 241.907 124.972 243.229 123.308 244.168C121.644 245.064 119.766 245.512 117.676 245.512C109.996 245.512 106.156 241.203 106.156 232.584V216.84C106.156 215.688 106.518 214.771 107.244 214.088C107.969 213.405 108.929 213.064 110.124 213.064C111.361 213.064 112.342 213.405 113.068 214.088C113.793 214.771 114.156 215.688 114.156 216.84V232.648C114.156 234.867 114.604 236.509 115.5 237.576C116.396 238.643 117.804 239.176 119.724 239.176C121.942 239.176 123.713 238.451 125.036 237C126.401 235.507 127.084 233.544 127.084 231.112V216.84C127.084 215.688 127.446 214.771 128.172 214.088C128.897 213.405 129.857 213.064 131.052 213.064Z" fill="#F1F1F1"/>
<path d="M161.586 212.936C165.341 212.936 168.136 214.003 169.97 216.136C171.805 218.269 172.722 221.491 172.722 225.8V241.544C172.722 242.739 172.36 243.677 171.634 244.36C170.952 245.043 169.992 245.384 168.754 245.384C167.517 245.384 166.536 245.043 165.81 244.36C165.085 243.677 164.722 242.739 164.722 241.544V226.248C164.722 223.816 164.253 222.045 163.314 220.936C162.418 219.827 160.989 219.272 159.026 219.272C156.722 219.272 154.866 219.997 153.458 221.448C152.093 222.899 151.41 224.84 151.41 227.272V241.544C151.41 242.739 151.048 243.677 150.322 244.36C149.597 245.043 148.616 245.384 147.378 245.384C146.141 245.384 145.16 245.043 144.434 244.36C143.752 243.677 143.41 242.739 143.41 241.544V216.776C143.41 215.667 143.773 214.771 144.498 214.088C145.224 213.405 146.205 213.064 147.442 213.064C148.552 213.064 149.448 213.405 150.13 214.088C150.856 214.728 151.218 215.581 151.218 216.648V218.376C152.285 216.627 153.714 215.283 155.506 214.344C157.298 213.405 159.325 212.936 161.586 212.936Z" fill="#F1F1F1"/>
<path d="M184.816 245.384C183.664 245.384 182.704 245.064 181.936 244.424C181.21 243.741 180.848 242.781 180.848 241.544V216.84C180.848 215.603 181.21 214.664 181.936 214.024C182.704 213.384 183.664 213.064 184.816 213.064C185.968 213.064 186.928 213.384 187.696 214.024C188.464 214.664 188.848 215.603 188.848 216.84V241.544C188.848 242.781 188.464 243.741 187.696 244.424C186.928 245.064 185.968 245.384 184.816 245.384ZM184.816 207.368C183.365 207.368 182.213 206.984 181.36 206.216C180.506 205.405 180.08 204.36 180.08 203.08C180.08 201.8 180.506 200.776 181.36 200.008C182.213 199.24 183.365 198.856 184.816 198.856C186.224 198.856 187.354 199.24 188.208 200.008C189.104 200.776 189.552 201.8 189.552 203.08C189.552 204.36 189.125 205.405 188.272 206.216C187.418 206.984 186.266 207.368 184.816 207.368Z" fill="#F1F1F1"/>
<path d="M214.729 239.432C216.862 239.56 217.929 240.52 217.929 242.312C217.929 243.336 217.502 244.125 216.649 244.68C215.838 245.192 214.665 245.405 213.129 245.32L211.401 245.192C204.233 244.68 200.649 240.84 200.649 233.672V219.72H197.449C196.297 219.72 195.401 219.464 194.761 218.952C194.163 218.44 193.865 217.693 193.865 216.712C193.865 215.731 194.163 214.984 194.761 214.472C195.401 213.96 196.297 213.704 197.449 213.704H200.649V207.816C200.649 206.664 201.011 205.747 201.737 205.064C202.462 204.381 203.443 204.04 204.681 204.04C205.875 204.04 206.835 204.381 207.561 205.064C208.286 205.747 208.649 206.664 208.649 207.816V213.704H214.089C215.241 213.704 216.115 213.96 216.713 214.472C217.353 214.984 217.673 215.731 217.673 216.712C217.673 217.693 217.353 218.44 216.713 218.952C216.115 219.464 215.241 219.72 214.089 219.72H208.649V234.248C208.649 237.405 210.099 239.091 213.001 239.304L214.729 239.432Z" fill="#F1F1F1"/>
<path d="M244.422 215.368C244.763 214.6 245.211 214.045 245.766 213.704C246.363 213.32 247.003 213.128 247.686 213.128C248.667 213.128 249.542 213.469 250.31 214.152C251.12 214.792 251.526 215.603 251.526 216.584C251.526 217.053 251.398 217.544 251.142 218.056L233.67 254.664C232.944 256.115 231.814 256.84 230.278 256.84C229.296 256.84 228.422 256.52 227.654 255.88C226.928 255.283 226.566 254.515 226.566 253.576C226.566 253.107 226.694 252.573 226.95 251.976L231.302 242.824L219.398 218.056C219.184 217.629 219.078 217.139 219.078 216.584C219.078 215.603 219.483 214.771 220.294 214.088C221.147 213.405 222.107 213.064 223.174 213.064C223.899 213.064 224.56 213.256 225.158 213.64C225.755 213.981 226.224 214.536 226.566 215.304L235.526 235.08L244.422 215.368Z" fill="#F1F1F1"/>
</svg>
