<svg width="173" height="180" viewBox="0 0 173 180" fill="none" xmlns="http://www.w3.org/2000/svg">
<path d="M110.08 69.12C126.72 69.12 136.96 44.8 136.96 29.44C136.96 16.64 130.56 1.28 117.76 1.28C101.12 1.28 90.88 25.6 90.88 40.96C90.88 53.76 97.28 69.12 110.08 69.12ZM61.44 69.12C74.24 69.12 80.64 53.76 80.64 40.96C80.64 24.32 70.4 0 53.76 0C40.96 0 34.56 15.36 34.56 28.16C33.28 44.8 43.52 69.12 61.44 69.12ZM156.16 56.32C139.52 56.32 128 79.36 128 96C128 107.52 133.12 119.04 144.64 119.04C161.28 119.04 172.8 96 172.8 79.36C172.8 67.84 166.4 56.32 156.16 56.32ZM44.8 96C44.8 79.36 32 56.32 16.64 56.32C5.12 56.32 0 67.84 0 79.36C0 96 12.8 119.04 28.16 119.04C39.68 119.04 44.8 107.52 44.8 96ZM85.76 93.44C60.16 93.44 25.6 134.4 25.6 162.56C25.6 175.36 34.56 179.2 44.8 179.2C60.16 179.2 71.68 168.96 85.76 168.96C98.56 168.96 110.08 179.2 124.16 179.2C134.4 179.2 145.92 176.64 145.92 162.56C145.92 134.4 111.36 93.44 85.76 93.44Z" fill="#544179"/>
</svg>
